<svg width="289" height="146" viewBox="0 0 289 146" fill="none" xmlns="http://www.w3.org/2000/svg">
<rect x="272.727" y="145.578" width="145.578" height="15.9091" rx="7.95454" transform="rotate(-90 272.727 145.578)" fill="#E9EDF7"/>
<rect x="272.727" y="145.578" width="34.7148" height="15.9091" rx="7.95456" transform="rotate(-90 272.727 145.578)" fill="#4318FF"/>
<rect x="227.273" y="145.578" width="145.578" height="15.909" rx="7.95448" transform="rotate(-90 227.273 145.578)" fill="#E9EDF7"/>
<rect x="227.273" y="145.578" width="132.14" height="15.9091" rx="7.95454" transform="rotate(-90 227.273 145.578)" fill="#4318FF"/>
<rect x="181.818" y="145.578" width="145.578" height="15.9091" rx="7.95453" transform="rotate(-90 181.818 145.578)" fill="#E9EDF7"/>
<rect x="181.818" y="145.578" width="100.785" height="15.909" rx="7.95452" transform="rotate(-90 181.818 145.578)" fill="#4318FF"/>
<rect x="136.364" y="145.578" width="145.578" height="15.9091" rx="7.95454" transform="rotate(-90 136.364 145.578)" fill="#E9EDF7"/>
<rect x="136.364" y="145.578" width="75.0287" height="15.9091" rx="7.95455" transform="rotate(-90 136.364 145.578)" fill="#4318FF"/>
<rect x="90.9091" y="145.578" width="145.578" height="15.9091" rx="7.95454" transform="rotate(-90 90.9091 145.578)" fill="#E9EDF7"/>
<rect x="90.9091" y="145.578" width="119.822" height="15.9091" rx="7.95455" transform="rotate(-90 90.9091 145.578)" fill="#4318FF"/>
<rect x="45.4546" y="145.578" width="145.578" height="15.9091" rx="7.95454" transform="rotate(-90 45.4546 145.578)" fill="#E9EDF7"/>
<rect x="45.4546" y="145.578" width="60.4709" height="15.9091" rx="7.95455" transform="rotate(-90 45.4546 145.578)" fill="#4318FF"/>
<rect y="145.578" width="145.578" height="15.9091" rx="7.95454" transform="rotate(-90 0 145.578)" fill="#E9EDF7"/>
<rect y="145.578" width="86.227" height="15.9091" rx="7.95455" transform="rotate(-90 0 145.578)" fill="#4318FF"/>
</svg>
