<svg width="56" height="56" viewBox="0 0 56 56" fill="none" xmlns="http://www.w3.org/2000/svg">
<circle cx="28" cy="28" r="28" fill="url(#paint0_linear_555_23)"/>
<g clip-path="url(#clip0_555_23)">
<path fill-rule="evenodd" clip-rule="evenodd" d="M33.4484 29.3183C35.0467 30.4033 36.1667 31.8733 36.1667 33.8333V37.3333H39.6667C40.3084 37.3333 40.8334 36.8083 40.8334 36.1667V33.8333C40.8334 31.29 36.6684 29.785 33.4484 29.3183Z" fill="white"/>
<path d="M24.5 28C27.0774 28 29.1667 25.9107 29.1667 23.3333C29.1667 20.756 27.0774 18.6667 24.5 18.6667C21.9227 18.6667 19.8334 20.756 19.8334 23.3333C19.8334 25.9107 21.9227 28 24.5 28Z" fill="white"/>
<path fill-rule="evenodd" clip-rule="evenodd" d="M31.5 28C34.0784 28 36.1667 25.9117 36.1667 23.3333C36.1667 20.755 34.0784 18.6667 31.5 18.6667C30.9517 18.6667 30.4384 18.7833 29.9484 18.9467C30.9167 20.1483 31.5 21.6767 31.5 23.3333C31.5 24.99 30.9167 26.5183 29.9484 27.72C30.4384 27.8833 30.9517 28 31.5 28Z" fill="white"/>
<path fill-rule="evenodd" clip-rule="evenodd" d="M24.5 29.1667C21.385 29.1667 15.1667 30.73 15.1667 33.8333V36.1667C15.1667 36.8083 15.6917 37.3333 16.3334 37.3333H32.6667C33.3084 37.3333 33.8334 36.8083 33.8334 36.1667V33.8333C33.8334 30.73 27.615 29.1667 24.5 29.1667Z" fill="white"/>
</g>
<defs>
<linearGradient id="paint0_linear_555_23" x1="0" y1="0" x2="56" y2="56" gradientUnits="userSpaceOnUse">
<stop stop-color="#868CFF"/>
<stop offset="1" stop-color="#4318FF"/>
</linearGradient>
<clipPath id="clip0_555_23">
<rect width="28" height="28" fill="white" transform="translate(14 14)"/>
</clipPath>
</defs>
</svg>
