<svg width="11" height="15" viewBox="0 0 11 15" fill="none" xmlns="http://www.w3.org/2000/svg">
<path d="M5.09961 0C2.28025 0 0 2.28025 0 5.09961C0 8.92432 5.09961 14.5703 5.09961 14.5703C5.09961 14.5703 10.1992 8.92432 10.1992 5.09961C10.1992 2.28025 7.91896 0 5.09961 0ZM1.45703 5.09961C1.45703 3.08891 3.08891 1.45703 5.09961 1.45703C7.11031 1.45703 8.74219 3.08891 8.74219 5.09961C8.74219 7.19773 6.64406 10.3376 5.09961 12.2973C3.5843 10.3522 1.45703 7.17588 1.45703 5.09961Z" fill="#A3AED0"/>
<path d="M5.09985 6.92032C6.10572 6.92032 6.92114 6.1049 6.92114 5.09903C6.92114 4.09316 6.10572 3.27774 5.09985 3.27774C4.09398 3.27774 3.27856 4.09316 3.27856 5.09903C3.27856 6.1049 4.09398 6.92032 5.09985 6.92032Z" fill="#A3AED0"/>
</svg>
