<svg width="350" height="141" viewBox="0 0 350 141" fill="none" xmlns="http://www.w3.org/2000/svg">
<path d="M28.482 59.0775C19.5053 67.4775 7.53648 60.2442 2.67412 55.5775L-26.5 190.078L357.813 205.078C360.244 143.911 361.965 19.2775 349.397 10.0775C333.688 -1.42249 325.834 20.0775 323.028 26.5775C320.223 33.0775 310.686 38.0775 302.831 36.0775C294.976 34.0775 278.145 59.0775 266.363 65.0775C254.581 71.0775 238.311 38.0775 231.018 32.5775C223.724 27.0776 217.553 39.0775 214.748 38.0775C211.942 37.0775 200.16 5.57751 191.745 6.07751C183.329 6.57751 176.036 36.0775 169.864 32.5775C163.693 29.0776 156.96 55.5775 136.202 73.0775C115.443 90.5775 107.028 6.57754 95.8069 2.57754C84.5861 -1.42246 81.2198 16.0775 69.999 32.5775C58.7782 49.0775 53.7288 36.5775 50.3626 32.5775C46.9963 28.5775 39.7028 48.5775 28.482 59.0775Z" fill="url(#paint0_linear_555_449)" stroke="#4318FF" stroke-width="4" stroke-linecap="round" stroke-linejoin="round"/>
<defs>
<linearGradient id="paint0_linear_555_449" x1="167.059" y1="-17.5002" x2="167.059" y2="164.578" gradientUnits="userSpaceOnUse">
<stop stop-color="#E9E3FF"/>
<stop offset="0.72165" stop-color="#E9E3FF" stop-opacity="0"/>
</linearGradient>
</defs>
</svg>
