<svg width="48" height="48" viewBox="0 0 48 48" fill="none" xmlns="http://www.w3.org/2000/svg">
<circle cx="24" cy="24" r="24" fill="#F6F8FD"/>
<g clip-path="url(#clip0_892_143)">
<path d="M24 14C19.58 14 16 14.5 16 18V28C16 28.88 16.39 29.67 17 30.22V32C17 32.55 17.45 33 18 33H19C19.55 33 20 32.55 20 32V31H28V32C28 32.55 28.45 33 29 33H30C30.55 33 31 32.55 31 32V30.22C31.61 29.67 32 28.88 32 28V18C32 14.5 28.42 14 24 14ZM29.66 16.99H18.34C18.89 16.46 20.31 16 24 16C27.69 16 29.11 16.46 29.66 16.99ZM30 18.99V22H18V18.99H30ZM29.66 28.73L29.37 29H18.63L18.34 28.73C18.21 28.62 18 28.37 18 28V24H30V28C30 28.37 29.79 28.62 29.66 28.73Z" fill="#4318FF"/>
<path d="M20.5 28C21.3284 28 22 27.3284 22 26.5C22 25.6716 21.3284 25 20.5 25C19.6716 25 19 25.6716 19 26.5C19 27.3284 19.6716 28 20.5 28Z" fill="#4318FF"/>
<path d="M27.5 28C28.3284 28 29 27.3284 29 26.5C29 25.6716 28.3284 25 27.5 25C26.6716 25 26 25.6716 26 26.5C26 27.3284 26.6716 28 27.5 28Z" fill="#4318FF"/>
</g>
<defs>
<clipPath id="clip0_892_143">
<rect width="24" height="24" fill="white" transform="translate(12 12)"/>
</clipPath>
</defs>
</svg>
