<svg width="48" height="48" viewBox="0 0 48 48" fill="none" xmlns="http://www.w3.org/2000/svg">
<circle cx="24" cy="24" r="24" fill="#F6F8FD"/>
<g clip-path="url(#clip0_892_169)">
<path d="M16 18H32V20H16V18ZM18 14H30V16H18V14ZM32 22H16C14.9 22 14 22.9 14 24V32C14 33.1 14.9 34 16 34H32C33.1 34 34 33.1 34 32V24C34 22.9 33.1 22 32 22ZM32 32H16V24H32V32ZM22 24.73V31.26L28 28L22 24.73Z" fill="#FFB547"/>
</g>
<defs>
<clipPath id="clip0_892_169">
<rect width="24" height="24" fill="white" transform="translate(12 12)"/>
</clipPath>
</defs>
</svg>
