<?xml version="1.0" encoding="UTF-8"?>
<svg version="1.1" xmlns="http://www.w3.org/2000/svg" width="1024" height="1024">
<path d="M0 0 C30.98314859 17.08767589 69.64591622 23.25830547 104.25 14.4375 C105.03165527 14.24414062 105.81331055 14.05078125 106.61865234 13.8515625 C120.40477548 10.34345027 134.85528359 5.46457513 146.5546875 -2.84375 C149.69119671 -4.84384283 151.40993854 -4.7364069 155.015625 -4.05859375 C155.75296875 -3.89488281 156.4903125 -3.73117187 157.25 -3.5625 C158.60351562 -3.30146484 158.60351562 -3.30146484 159.984375 -3.03515625 C162.41125595 -2.56554793 164.83144222 -2.07297429 167.25 -1.5625 C167.25 -0.9025 167.25 -0.2425 167.25 0.4375 C167.80945313 0.58445312 168.36890625 0.73140625 168.9453125 0.8828125 C213.09681956 13.23387718 249.27490977 47.28536029 271.43554688 86.42504883 C272.72438362 88.75361346 273.99259269 91.09183417 275.25 93.4375 C275.60900391 94.09943359 275.96800781 94.76136719 276.33789062 95.44335938 C289.06133662 119.30894354 305.02549382 158.87843561 297.2265625 185.99609375 C293.19754397 194.73305383 286.40441716 201.78629785 277.48991585 205.62403893 C268.03484925 209.05779675 257.95584772 208.72224236 248.04345703 208.69146729 C246.41663028 208.69377501 244.78980458 208.69695361 243.16298103 208.70092177 C238.71682189 208.70923561 234.2707491 208.70516007 229.82458973 208.69894934 C225.02015931 208.69441185 220.21574342 208.70141503 215.41131592 208.70690918 C206.00899578 208.71579098 196.60670761 208.71388657 187.20438623 208.7080839 C179.56124262 208.70356265 171.91810795 208.70295651 164.27496338 208.70513153 C163.18613739 208.705438 162.0973114 208.70574446 160.97549069 208.70606022 C158.7633926 208.70669968 156.55129452 208.70734811 154.33919644 208.7080054 C133.60826878 208.71370514 112.87735883 208.70715638 92.14643407 208.69640467 C74.36779614 208.68746948 56.58918433 208.68902162 38.81054688 208.69824219 C18.15255491 208.7089511 -2.50542155 208.71315585 -23.16341591 208.70701766 C-25.36726506 208.70638058 -27.57111422 208.70575184 -29.77496338 208.70513153 C-30.85923013 208.70482298 -31.94349687 208.70451443 -33.06062019 208.70419653 C-40.69241514 208.70247145 -48.32420023 208.70538065 -55.95599365 208.71009064 C-65.25968422 208.71570636 -74.56334105 208.71416846 -83.86702776 208.70352915 C-88.61166013 208.69828177 -93.3562363 208.69619979 -98.10086823 208.70282745 C-102.44830442 208.70880833 -106.79563256 208.70547662 -111.14305902 208.69487235 C-112.71155512 208.69264737 -114.28006044 208.69375422 -115.84855056 208.69862393 C-130.07759925 208.73939513 -144.13560268 208.07819675 -155.3046875 198.08984375 C-164.11117322 188.02188845 -165.54160049 179.10091608 -164.96777344 166.21826172 C-161.6596546 123.97669947 -139.92293261 78.45066677 -109.35595703 49.08398438 C-107.66121274 47.51357796 -107.66121274 47.51357796 -106.75 45.4375 C-106.09 45.4375 -105.43 45.4375 -104.75 45.4375 C-104.75 44.7775 -104.75 44.1175 -104.75 43.4375 C-102.28742141 40.89024822 -99.46851662 38.70581641 -96.75 36.4375 C-95.94046875 35.74140625 -95.1309375 35.0453125 -94.296875 34.328125 C-86.85409837 28.04410401 -78.99462341 22.59988686 -70.75 17.4375 C-69.81244873 16.8492041 -69.81244873 16.8492041 -68.85595703 16.24902344 C-54.86030018 7.60560767 -39.64952221 1.95203842 -23.875 -2.5625 C-23.15650879 -2.77036133 -22.43801758 -2.97822266 -21.69775391 -3.19238281 C-12.68932828 -5.62501986 -7.78712566 -4.52181834 0 0 Z " fill="#A9A9CB" transform="translate(407.75,513.5625)"/>
<path d="M0 0 C0.95326172 0.06380859 0.95326172 0.06380859 1.92578125 0.12890625 C35.66260522 2.53427396 64.70072499 18.8713117 86.78515625 44.23046875 C108.88051949 71.85941503 118.39391253 105.68374848 114.53125 140.828125 C110.24315039 172.7742954 93.12909582 201.89334728 67.68359375 221.65625 C64.52519795 223.91944405 61.32768158 225.99470671 58 228 C57.42846191 228.34611328 56.85692383 228.69222656 56.26806641 229.04882812 C29.68580936 244.88879035 -1.97576909 248.87977396 -32 242 C-49.39775121 237.5936468 -65.22535677 229.50744745 -79 218 C-79.98355469 217.18015625 -80.96710938 216.3603125 -81.98046875 215.515625 C-107.05177335 193.90606561 -119.92817113 164.3789178 -122.61889648 131.79663086 C-124.78030773 98.10698917 -113.32377131 66.81298632 -92 41 C-91.44054687 40.30648437 -90.88109375 39.61296875 -90.3046875 38.8984375 C-88.92167551 37.22145195 -87.46728158 35.60377289 -86 34 C-85.34 34 -84.68 34 -84 34 C-83.67 33.01 -83.34 32.02 -83 31 C-80.97615592 29.1657987 -78.96701637 27.47991081 -76.8125 25.8125 C-76.18972168 25.3270874 -75.56694336 24.8416748 -74.92529297 24.34155273 C-68.63411706 19.5469596 -61.97511923 15.69892687 -55 12 C-54.3090625 11.60296875 -53.618125 11.2059375 -52.90625 10.796875 C-37.79243791 2.44450516 -17.10020686 -1.3011027 0 0 Z " fill="#A9A9CB" transform="translate(483,259)"/>
<path d="M0 0 C0.83660156 0.34546875 1.67320312 0.6909375 2.53515625 1.046875 C10.61502183 4.67296102 17.27576079 10.33575019 24 16 C24.680625 16.56332031 25.36125 17.12664062 26.0625 17.70703125 C42.77174377 32.93011632 53.77301159 58.08470877 55.14160156 80.29833984 C56.35883667 106.75530292 48.84633971 129.8161284 31.0703125 149.79296875 C16.47972147 165.46347101 -4.43025725 176.12811233 -26 177 C-26.90878906 177.03996094 -27.81757812 177.07992187 -28.75390625 177.12109375 C-50.19350052 177.59628684 -71.55473791 170.6273784 -88.08203125 156.859375 C-89.96928272 155.02977887 -91.49284334 153.14900572 -93 151 C-92.27296875 150.195625 -92.27296875 150.195625 -91.53125 149.375 C-85.14826178 141.91181377 -81.00521982 133.8860202 -77 125 C-76.525625 123.95070313 -76.05125 122.90140625 -75.5625 121.8203125 C-69.37892451 106.94108398 -60.72077949 80.83766154 -66 65 C-66.01987478 63.39582117 -65.9927879 61.79084899 -65.9375 60.1875 C-65.86630359 41.98495048 -71.32033966 23.41272542 -79 7 C-71.69462234 -3.16550193 -58.8188932 -5.61277701 -47.125 -7.6875 C-30.44166336 -9.3009091 -15.28243522 -6.73807237 0 0 Z " fill="#A9A9CB" transform="translate(690,317)"/>
<path d="M0 0 C1.45273315 0.4021875 1.45273315 0.4021875 2.93481445 0.8125 C11.54207242 3.28085712 19.53444619 6.50057869 27.5625 10.4375 C28.97982422 11.09105469 28.97982422 11.09105469 30.42578125 11.7578125 C56.88647382 24.85095519 78.16954622 52.6686899 89.5625 79.4375 C89.5625 80.0975 89.5625 80.7575 89.5625 81.4375 C90.2225 81.7675 90.8825 82.0975 91.5625 82.4375 C92.60362128 85.0143515 93.51722438 87.54885045 94.375 90.1875 C94.63563232 90.97938721 94.89626465 91.77127441 95.16479492 92.5871582 C108.24026326 133.41772028 108.24026326 133.41772028 99.5625 150.4375 C95.21303901 157.37536304 89.33442265 161.08678951 81.5625 163.4375 C72.22428845 165.50786782 63.02865591 165.70312252 53.515625 165.6328125 C52.00820099 165.62907224 50.5007745 165.62623007 48.99334717 165.62423706 C45.06759673 165.61668019 41.14199943 165.59710224 37.21630859 165.5748291 C33.19370596 165.55419723 29.17107804 165.54519865 25.1484375 165.53515625 C17.28638885 165.51384699 9.42446359 165.47980989 1.5625 165.4375 C0.17233924 162.04028841 -0.9058761 158.80490617 -1.69921875 155.21875 C-11.68143191 111.22424719 -30.23094376 71.56761714 -61.89208984 39.02978516 C-63.2194029 37.66221237 -64.52766686 36.27619664 -65.83203125 34.88671875 C-76.05517625 24.20836878 -88.0760941 16.1281204 -100.66796875 8.52783203 C-103.30707912 6.90169145 -105.87128778 5.17602957 -108.4375 3.4375 C-105.31360486 1.87555243 -103.10121181 3.27031006 -99.8125 4.25 C-73.01549966 11.78493391 -46.4895686 8.93376955 -20.9375 -1.375 C-13.62675644 -3.85543085 -7.18115449 -2.00526117 0 0 Z " fill="#AAAACC" transform="translate(727.4375,503.5625)"/>
<path d="M0 0 C0.33 0 0.66 0 1 0 C2.02467556 8.57691394 -0.21917984 14.87294572 -5 22 C-12.84562689 30.87148234 -21.44625825 34.58118177 -33 36 C-38.40356758 36.27572364 -43.79806196 36.27075903 -49.20654297 36.25396729 C-50.83336972 36.25627501 -52.46019542 36.25945361 -54.08701897 36.26342177 C-58.53317811 36.27173561 -62.9792509 36.26766007 -67.42541027 36.26144934 C-72.22984069 36.25691185 -77.03425658 36.26391503 -81.83868408 36.26940918 C-91.24100422 36.27829098 -100.64329239 36.27638657 -110.04561377 36.2705839 C-117.68875738 36.26606265 -125.33189205 36.26545651 -132.97503662 36.26763153 C-134.06386261 36.267938 -135.1526886 36.26824446 -136.27450931 36.26856022 C-138.4866074 36.26919968 -140.69870548 36.26984811 -142.91080356 36.2705054 C-163.64173122 36.27620514 -184.37264117 36.26965638 -205.10356593 36.25890467 C-222.88220386 36.24996948 -240.66081567 36.25152162 -258.43945312 36.26074219 C-279.09744509 36.2714511 -299.75542155 36.27565585 -320.41341591 36.26951766 C-322.61726506 36.26888058 -324.82111422 36.26825184 -327.02496338 36.26763153 C-328.10923013 36.26732298 -329.19349687 36.26701443 -330.31062019 36.26669653 C-337.94241514 36.26497145 -345.57420023 36.26788065 -353.20599365 36.27259064 C-362.50968422 36.27820636 -371.81334105 36.27666846 -381.11702776 36.26602915 C-385.86166013 36.26078177 -390.6062363 36.25869979 -395.35086823 36.26532745 C-399.69830442 36.27130833 -404.04563256 36.26797662 -408.39305902 36.25737235 C-409.96155512 36.25514737 -411.53006044 36.25625422 -413.09855056 36.26112393 C-434.56127215 36.32262214 -434.56127215 36.32262214 -443.5625 31.5625 C-444.36816406 31.15128906 -445.17382812 30.74007812 -446.00390625 30.31640625 C-448 29 -448 29 -450 26 C-446.21009217 27.42121544 -442.70833534 29.16692225 -439.16015625 31.09765625 C-434.30087418 33.12748294 -429.19607527 33.12657621 -423.99863911 33.13422108 C-423.31459701 33.13657331 -422.63055491 33.13892554 -421.92578426 33.14134905 C-419.63485832 33.14800322 -417.34398957 33.14758191 -415.05305481 33.14717102 C-413.39342068 33.15047186 -411.73378735 33.15419789 -410.07415503 33.1583125 C-405.51411241 33.16831524 -400.95408296 33.1720465 -396.39403093 33.17470181 C-391.47567397 33.17860988 -386.55732738 33.18818773 -381.63897705 33.19691467 C-369.76294154 33.2166628 -357.8869052 33.22674228 -346.01085737 33.23564246 C-340.41714153 33.24002725 -334.82342663 33.24539349 -329.22971153 33.25063133 C-310.63418302 33.26764042 -292.0386551 33.28213516 -273.44312 33.28938007 C-268.61922518 33.29128993 -263.79533035 33.29321027 -258.97143555 33.29516602 C-257.17302655 33.29589163 -257.17302655 33.29589163 -255.33828606 33.2966319 C-235.910924 33.30493443 -216.48362347 33.33027656 -197.05628828 33.36274669 C-177.10793507 33.39581576 -157.15961313 33.41382862 -137.21123236 33.41702431 C-126.0119814 33.41918933 -114.81282021 33.42793703 -103.61359596 33.45348549 C-94.07737078 33.47519019 -84.54125719 33.48324393 -75.00501011 33.47351871 C-70.14085337 33.46897365 -65.27692691 33.47087242 -60.41280174 33.49028015 C-55.95589899 33.50790933 -51.49939456 33.50691608 -47.04248758 33.49138286 C-45.43413246 33.48900645 -43.82574977 33.49333206 -42.21743677 33.50521151 C-29.65828876 33.59219687 -18.34893879 32.12341615 -9 23 C-2.90553068 16.28223268 -1.42327235 8.77684614 0 0 Z " fill="#9F9EBE" transform="translate(705,686)"/>
<path d="M0 0 C3.78990783 1.42121544 7.29166466 3.16692225 10.83984375 5.09765625 C16.40256673 7.42132534 22.36337185 7.13338856 28.28051758 7.09765625 C29.19708633 7.09619598 30.11365509 7.09473572 31.05799866 7.0932312 C33.04515435 7.08943345 35.03230667 7.0833256 37.01944923 7.07516479 C40.18986816 7.06231627 43.36024476 7.05586152 46.53068542 7.05102539 C54.4218258 7.03769819 62.31292702 7.01376586 70.20404053 6.98962402 C76.85197938 6.96963384 83.49990181 6.95408981 90.14786339 6.94406128 C93.22521814 6.9377201 96.30250374 6.92520452 99.37983704 6.91235352 C113.60771519 6.87619127 127.78859089 7.32764729 142 8 C142 8.33 142 8.66 142 9 C118.98920997 10.05891037 95.99568555 10.18784577 72.96435547 10.18530273 C67.84435502 10.18519977 62.72448907 10.19903674 57.6045208 10.21607494 C53.60661194 10.22721958 49.60873594 10.22922146 45.61081314 10.22869301 C43.72196092 10.22986225 41.83310755 10.23422365 39.94427109 10.24202538 C15.4602461 10.33400165 15.4602461 10.33400165 6.4375 5.5625 C5.63183594 5.15128906 4.82617188 4.74007812 3.99609375 4.31640625 C2 3 2 3 0 0 Z " fill="#9797B7" transform="translate(255,712)"/>
<path d="M0 0 C-0.51272461 0.23074219 -1.02544922 0.46148437 -1.55371094 0.69921875 C-20.59010372 8.99980753 -20.59010372 8.99980753 -35.94921875 22.578125 C-38.8589688 26.01440125 -42.01380766 29.18345514 -45.1875 32.375 C-45.7944873 32.99455566 -46.40147461 33.61411133 -47.02685547 34.25244141 C-47.60967285 34.83687012 -48.19249023 35.42129883 -48.79296875 36.0234375 C-49.3139917 36.54856934 -49.83501465 37.07370117 -50.37182617 37.61474609 C-52.13809666 39.11749294 -53.89348536 40.04719579 -56 41 C-54.49138768 36.02157935 -51.4737453 32.73007765 -48 29 C-47.48308594 28.43539063 -46.96617187 27.87078125 -46.43359375 27.2890625 C-45 26 -45 26 -43 26 C-42.67 25.01 -42.34 24.02 -42 23 C-39.97615592 21.1657987 -37.96701637 19.47991081 -35.8125 17.8125 C-35.18972168 17.3270874 -34.56694336 16.8416748 -33.92529297 16.34155273 C-27.63126502 11.54478602 -20.99718246 7.6854725 -14 4 C-13.15824219 3.5565625 -12.31648438 3.113125 -11.44921875 2.65625 C-3.79123107 -1.26374369 -3.79123107 -1.26374369 0 0 Z " fill="#9E9DBD" transform="translate(442,267)"/>
<path d="M0 0 C1.11117187 0.26554687 2.22234375 0.53109375 3.3671875 0.8046875 C11.21998544 2.67234181 19.06309702 4.51792475 27 6 C27 6.33 27 6.66 27 7 C22.1666528 7.08333357 17.76307437 6.95261487 13 6 C15.64 7.98 18.28 9.96 21 12 C17.73232556 12 16.76875486 11.49872309 14.0234375 9.8828125 C13.270625 9.44066406 12.5178125 8.99851562 11.7421875 8.54296875 C10.96101562 8.07503906 10.17984375 7.60710938 9.375 7.125 C8.58609375 6.66480469 7.7971875 6.20460938 6.984375 5.73046875 C1.13006525 2.26013049 1.13006525 2.26013049 0 0 Z " fill="#9B9BBB" transform="translate(619,506)"/>
<path d="M0 0 C4.62 0.66 9.24 1.32 14 2 C14 2.33 14 2.66 14 3 C12.35 3.33 10.7 3.66 9 4 C9.33 4.66 9.66 5.32 10 6 C5.69308797 4.52334445 3.80459619 3.04367695 0 0 Z " fill="#B5B5D8" transform="translate(630,511)"/>
<path d="M0 0 C0.66 0.66 1.32 1.32 2 2 C1.34 2 0.68 2 0 2 C0 1.34 0 0.68 0 0 Z " fill="#B1B1D0" transform="translate(689,573)"/>
<path d="" fill="#AFAECC" transform="translate(0,0)"/>
<path d="M0 0 C3 1 3 1 3 1 Z " fill="#ADB0CB" transform="translate(624,312)"/>
<path d="M0 0 C2 1 2 1 2 1 Z " fill="#ABAAC7" transform="translate(800,669)"/>
<path d="M0 0 C2 1 2 1 2 1 Z " fill="#B0B0CE" transform="translate(630,507)"/>
<path d="M0 0 C2 1 2 1 2 1 Z " fill="#B2B2D0" transform="translate(698,504)"/>
<path d="M0 0 C2 1 2 1 2 1 Z " fill="#B1B0CE" transform="translate(500,503)"/>
<path d="M0 0 C2 1 2 1 2 1 Z " fill="#AFAFCF" transform="translate(673,493)"/>
<path d="M0 0 C2 1 2 1 2 1 Z " fill="#B1B0D0" transform="translate(641,493)"/>
<path d="" fill="#AEADCC" transform="translate(0,0)"/>
<path d="" fill="#AEACCA" transform="translate(0,0)"/>
<path d="" fill="#ADADCB" transform="translate(0,0)"/>
<path d="M0 0 C2 1 2 1 2 1 Z " fill="#ADADC8" transform="translate(440,264)"/>
<path d="" fill="#565758" transform="translate(0,0)"/>
<path d="" fill="#A8A9C5" transform="translate(0,0)"/>
<path d="" fill="#A5A3C1" transform="translate(0,0)"/>
<path d="" fill="#ADABC7" transform="translate(0,0)"/>
<path d="" fill="#ABABC8" transform="translate(0,0)"/>
<path d="" fill="#B1B0CF" transform="translate(0,0)"/>
<path d="" fill="#ADABCA" transform="translate(0,0)"/>
<path d="" fill="#ADACCA" transform="translate(0,0)"/>
<path d="" fill="#AFAECA" transform="translate(0,0)"/>
<path d="" fill="#AEAECC" transform="translate(0,0)"/>
<path d="" fill="#AEB0CF" transform="translate(0,0)"/>
<path d="" fill="#B2B1CF" transform="translate(0,0)"/>
<path d="" fill="#B2B2CF" transform="translate(0,0)"/>
<path d="" fill="#ACADC8" transform="translate(0,0)"/>
<path d="" fill="#B4B3D3" transform="translate(0,0)"/>
<path d="" fill="#A9ABC6" transform="translate(0,0)"/>
<path d="" fill="#B1AFD0" transform="translate(0,0)"/>
<path d="" fill="#B1B1CF" transform="translate(0,0)"/>
<path d="" fill="#AEB0CD" transform="translate(0,0)"/>
<path d="" fill="#AEB0CE" transform="translate(0,0)"/>
<path d="" fill="#ADACCD" transform="translate(0,0)"/>
<path d="" fill="#ADAFCC" transform="translate(0,0)"/>
<path d="" fill="#ADADCD" transform="translate(0,0)"/>
<path d="" fill="#B1B0CF" transform="translate(0,0)"/>
<path d="" fill="#AFAECC" transform="translate(0,0)"/>
<path d="" fill="#AFAFCD" transform="translate(0,0)"/>
<path d="" fill="#AFAECB" transform="translate(0,0)"/>
<path d="" fill="#AEAECF" transform="translate(0,0)"/>
<path d="" fill="#ADAED1" transform="translate(0,0)"/>
<path d="" fill="#B0B1CF" transform="translate(0,0)"/>
<path d="" fill="#B3B3D1" transform="translate(0,0)"/>
<path d="" fill="#B1AFD1" transform="translate(0,0)"/>
<path d="" fill="#AEB0D0" transform="translate(0,0)"/>
<path d="" fill="#B1B2D0" transform="translate(0,0)"/>
<path d="" fill="#B0B2CF" transform="translate(0,0)"/>
<path d="" fill="#B0B0CE" transform="translate(0,0)"/>
<path d="" fill="#B1B1CE" transform="translate(0,0)"/>
<path d="" fill="#B2B2CF" transform="translate(0,0)"/>
<path d="" fill="#B2B0CE" transform="translate(0,0)"/>
<path d="" fill="#B3B2D1" transform="translate(0,0)"/>
<path d="" fill="#B2B2D0" transform="translate(0,0)"/>
<path d="" fill="#B1AFCF" transform="translate(0,0)"/>
<path d="" fill="#B1AFD0" transform="translate(0,0)"/>
<path d="" fill="#B3B3D1" transform="translate(0,0)"/>
<path d="" fill="#B0B1D2" transform="translate(0,0)"/>
<path d="" fill="#B0B0D1" transform="translate(0,0)"/>
<path d="" fill="#B2B0D1" transform="translate(0,0)"/>
<path d="" fill="#AEADCE" transform="translate(0,0)"/>
<path d="" fill="#B2B1D0" transform="translate(0,0)"/>
<path d="" fill="#B1AED0" transform="translate(0,0)"/>
<path d="" fill="#B0AECE" transform="translate(0,0)"/>
<path d="" fill="#AFACCD" transform="translate(0,0)"/>
<path d="" fill="#B2B3D0" transform="translate(0,0)"/>
<path d="" fill="#B1ADCF" transform="translate(0,0)"/>
<path d="" fill="#B1AECC" transform="translate(0,0)"/>
<path d="" fill="#B0AFCE" transform="translate(0,0)"/>
<path d="" fill="#B1B0CE" transform="translate(0,0)"/>
<path d="" fill="#B1B0CD" transform="translate(0,0)"/>
<path d="" fill="#ACAFC9" transform="translate(0,0)"/>
<path d="" fill="#AFAFCA" transform="translate(0,0)"/>
<path d="" fill="#ADAEC9" transform="translate(0,0)"/>
<path d="" fill="#B1AECF" transform="translate(0,0)"/>
<path d="" fill="#B2B0CD" transform="translate(0,0)"/>
<path d="" fill="#ACABCA" transform="translate(0,0)"/>
<path d="" fill="#ACABC7" transform="translate(0,0)"/>
<path d="" fill="#B1B0CF" transform="translate(0,0)"/>
<path d="" fill="#AEADCC" transform="translate(0,0)"/>
<path d="" fill="#AFAFCD" transform="translate(0,0)"/>
<path d="" fill="#B0B1CD" transform="translate(0,0)"/>
<path d="" fill="#AFAFCC" transform="translate(0,0)"/>
<path d="" fill="#AEAECC" transform="translate(0,0)"/>
<path d="" fill="#B1AFCC" transform="translate(0,0)"/>
<path d="" fill="#ADADC8" transform="translate(0,0)"/>
<path d="" fill="#ABA9C6" transform="translate(0,0)"/>
<path d="" fill="#A9AAC6" transform="translate(0,0)"/>
<path d="" fill="#ACABC7" transform="translate(0,0)"/>
<path d="" fill="#ABA9C4" transform="translate(0,0)"/>
<path d="" fill="#AAABC8" transform="translate(0,0)"/>
<path d="" fill="#A7A7C5" transform="translate(0,0)"/>
</svg>
